<mxfile host="app.diagrams.net" modified="2023-03-31T10:24:04.109Z" agent="Mozilla/5.0 (X11; Linux x86_64; rv:110.0) Gecko/20100101 Firefox/110.0" etag="ryO4FQzS7wkZoFxwZr2-" version="21.1.2" type="github">
  <diagram name="Server" id="AGUhUu6FTL9pFBDofL-d">
    <mxGraphModel dx="2634" dy="1613" grid="1" gridSize="10" guides="1" tooltips="1" connect="1" arrows="1" fold="1" page="0" pageScale="1" pageWidth="827" pageHeight="1169" math="0" shadow="0">
      <root>
        <mxCell id="0" />
        <mxCell id="1" parent="0" />
        <mxCell id="JxGRCyyDZtDp2fDfsdCm-1" value="&lt;b&gt;AreaGeografica&lt;/b&gt;" style="swimlane;fontStyle=0;childLayout=stackLayout;horizontal=1;startSize=26;fillColor=none;horizontalStack=0;resizeParent=1;resizeParentMax=0;resizeLast=0;collapsible=1;marginBottom=0;whiteSpace=wrap;html=1;" parent="1" vertex="1">
          <mxGeometry x="-510" y="-324" width="390" height="190" as="geometry" />
        </mxCell>
        <mxCell id="JxGRCyyDZtDp2fDfsdCm-2" value="- Latitudine: double" style="text;strokeColor=none;fillColor=none;align=left;verticalAlign=top;spacingLeft=4;spacingRight=4;overflow=hidden;rotatable=0;points=[[0,0.5],[1,0.5]];portConstraint=eastwest;whiteSpace=wrap;html=1;" parent="JxGRCyyDZtDp2fDfsdCm-1" vertex="1">
          <mxGeometry y="26" width="390" height="26" as="geometry" />
        </mxCell>
        <mxCell id="JxGRCyyDZtDp2fDfsdCm-3" value="- Longitudine: double" style="text;strokeColor=none;fillColor=none;align=left;verticalAlign=top;spacingLeft=4;spacingRight=4;overflow=hidden;rotatable=0;points=[[0,0.5],[1,0.5]];portConstraint=eastwest;whiteSpace=wrap;html=1;" parent="JxGRCyyDZtDp2fDfsdCm-1" vertex="1">
          <mxGeometry y="52" width="390" height="26" as="geometry" />
        </mxCell>
        <mxCell id="JxGRCyyDZtDp2fDfsdCm-5" value="- Stato: String" style="text;strokeColor=none;fillColor=none;align=left;verticalAlign=top;spacingLeft=4;spacingRight=4;overflow=hidden;rotatable=0;points=[[0,0.5],[1,0.5]];portConstraint=eastwest;whiteSpace=wrap;html=1;" parent="JxGRCyyDZtDp2fDfsdCm-1" vertex="1">
          <mxGeometry y="78" width="390" height="26" as="geometry" />
        </mxCell>
        <mxCell id="JxGRCyyDZtDp2fDfsdCm-4" value="- Denominazione: String" style="text;strokeColor=none;fillColor=none;align=left;verticalAlign=top;spacingLeft=4;spacingRight=4;overflow=hidden;rotatable=0;points=[[0,0.5],[1,0.5]];portConstraint=eastwest;whiteSpace=wrap;html=1;" parent="JxGRCyyDZtDp2fDfsdCm-1" vertex="1">
          <mxGeometry y="104" width="390" height="26" as="geometry" />
        </mxCell>
        <mxCell id="CR_k1ErsiSNvkhVKo7Lu-42" value="" style="line;strokeWidth=1;fillColor=none;align=left;verticalAlign=middle;spacingTop=-1;spacingLeft=3;spacingRight=3;rotatable=0;labelPosition=right;points=[];portConstraint=eastwest;strokeColor=inherit;" vertex="1" parent="JxGRCyyDZtDp2fDfsdCm-1">
          <mxGeometry y="130" width="390" height="8" as="geometry" />
        </mxCell>
        <mxCell id="CR_k1ErsiSNvkhVKo7Lu-44" value="+ AreaGeografica(lat: double, lon: double, stato: String, denom: String)" style="text;strokeColor=none;fillColor=none;align=left;verticalAlign=top;spacingLeft=4;spacingRight=4;overflow=hidden;rotatable=0;points=[[0,0.5],[1,0.5]];portConstraint=eastwest;whiteSpace=wrap;html=1;" vertex="1" parent="JxGRCyyDZtDp2fDfsdCm-1">
          <mxGeometry y="138" width="390" height="26" as="geometry" />
        </mxCell>
        <mxCell id="CR_k1ErsiSNvkhVKo7Lu-43" value="+ Getter, Setter" style="text;strokeColor=none;fillColor=none;align=left;verticalAlign=top;spacingLeft=4;spacingRight=4;overflow=hidden;rotatable=0;points=[[0,0.5],[1,0.5]];portConstraint=eastwest;whiteSpace=wrap;html=1;" vertex="1" parent="JxGRCyyDZtDp2fDfsdCm-1">
          <mxGeometry y="164" width="390" height="26" as="geometry" />
        </mxCell>
        <mxCell id="JxGRCyyDZtDp2fDfsdCm-11" value="&lt;u&gt;ElaboratoreAreeGeografiche&lt;/u&gt;" style="swimlane;fontStyle=1;align=center;verticalAlign=top;childLayout=stackLayout;horizontal=1;startSize=26;horizontalStack=0;resizeParent=1;resizeParentMax=0;resizeLast=0;collapsible=1;marginBottom=0;whiteSpace=wrap;html=1;" parent="1" vertex="1">
          <mxGeometry x="-960" y="-100" width="510" height="138" as="geometry" />
        </mxCell>
        <mxCell id="JxGRCyyDZtDp2fDfsdCm-12" value="// no attr" style="text;strokeColor=none;fillColor=none;align=left;verticalAlign=top;spacingLeft=4;spacingRight=4;overflow=hidden;rotatable=0;points=[[0,0.5],[1,0.5]];portConstraint=eastwest;whiteSpace=wrap;html=1;" parent="JxGRCyyDZtDp2fDfsdCm-11" vertex="1">
          <mxGeometry y="26" width="510" height="26" as="geometry" />
        </mxCell>
        <mxCell id="JxGRCyyDZtDp2fDfsdCm-13" value="" style="line;strokeWidth=1;fillColor=none;align=left;verticalAlign=middle;spacingTop=-1;spacingLeft=3;spacingRight=3;rotatable=0;labelPosition=right;points=[];portConstraint=eastwest;strokeColor=inherit;" parent="JxGRCyyDZtDp2fDfsdCm-11" vertex="1">
          <mxGeometry y="52" width="510" height="8" as="geometry" />
        </mxCell>
        <mxCell id="JxGRCyyDZtDp2fDfsdCm-14" value="+ cercaAreaGeografica(denom: String, stato: String): List&amp;lt;AreaGeografica&amp;gt; // Nullable" style="text;strokeColor=none;fillColor=none;align=left;verticalAlign=top;spacingLeft=4;spacingRight=4;overflow=hidden;rotatable=0;points=[[0,0.5],[1,0.5]];portConstraint=eastwest;whiteSpace=wrap;html=1;" parent="JxGRCyyDZtDp2fDfsdCm-11" vertex="1">
          <mxGeometry y="60" width="510" height="26" as="geometry" />
        </mxCell>
        <mxCell id="JxGRCyyDZtDp2fDfsdCm-19" value="+ cercaAreeGeografiche(lat: double, lon: double): List&amp;lt;AreaGeografica&amp;gt; // Nullable" style="text;strokeColor=none;fillColor=none;align=left;verticalAlign=top;spacingLeft=4;spacingRight=4;overflow=hidden;rotatable=0;points=[[0,0.5],[1,0.5]];portConstraint=eastwest;whiteSpace=wrap;html=1;" parent="JxGRCyyDZtDp2fDfsdCm-11" vertex="1">
          <mxGeometry y="86" width="510" height="26" as="geometry" />
        </mxCell>
        <mxCell id="JxGRCyyDZtDp2fDfsdCm-20" value="+ visualizzaAreaGeografica(area: AreaGeografica):DatoGeografico // Aggregato" style="text;strokeColor=none;fillColor=none;align=left;verticalAlign=top;spacingLeft=4;spacingRight=4;overflow=hidden;rotatable=0;points=[[0,0.5],[1,0.5]];portConstraint=eastwest;whiteSpace=wrap;html=1;" parent="JxGRCyyDZtDp2fDfsdCm-11" vertex="1">
          <mxGeometry y="112" width="510" height="26" as="geometry" />
        </mxCell>
        <mxCell id="JxGRCyyDZtDp2fDfsdCm-25" value="&amp;lt;&amp;lt;Enum&amp;gt;&amp;gt;&lt;br&gt;&lt;div&gt;DatoGeografico&lt;/div&gt;" style="swimlane;fontStyle=1;align=center;verticalAlign=top;childLayout=stackLayout;horizontal=1;startSize=40;horizontalStack=0;resizeParent=1;resizeParentMax=0;resizeLast=0;collapsible=1;marginBottom=0;whiteSpace=wrap;html=1;" parent="1" vertex="1">
          <mxGeometry x="-100" y="-170" width="590" height="374" as="geometry" />
        </mxCell>
        <mxCell id="JxGRCyyDZtDp2fDfsdCm-34" value="&lt;div&gt;- massaGhiacciai: byte&lt;/div&gt;" style="text;strokeColor=none;fillColor=none;align=left;verticalAlign=top;spacingLeft=4;spacingRight=4;overflow=hidden;rotatable=0;points=[[0,0.5],[1,0.5]];portConstraint=eastwest;whiteSpace=wrap;html=1;" parent="JxGRCyyDZtDp2fDfsdCm-25" vertex="1">
          <mxGeometry y="40" width="590" height="26" as="geometry" />
        </mxCell>
        <mxCell id="JxGRCyyDZtDp2fDfsdCm-33" value="- altitudineGhiacciai: byte" style="text;strokeColor=none;fillColor=none;align=left;verticalAlign=top;spacingLeft=4;spacingRight=4;overflow=hidden;rotatable=0;points=[[0,0.5],[1,0.5]];portConstraint=eastwest;whiteSpace=wrap;html=1;" parent="JxGRCyyDZtDp2fDfsdCm-25" vertex="1">
          <mxGeometry y="66" width="590" height="26" as="geometry" />
        </mxCell>
        <mxCell id="JxGRCyyDZtDp2fDfsdCm-32" value="- precipitazioni: byte" style="text;strokeColor=none;fillColor=none;align=left;verticalAlign=top;spacingLeft=4;spacingRight=4;overflow=hidden;rotatable=0;points=[[0,0.5],[1,0.5]];portConstraint=eastwest;whiteSpace=wrap;html=1;" parent="JxGRCyyDZtDp2fDfsdCm-25" vertex="1">
          <mxGeometry y="92" width="590" height="26" as="geometry" />
        </mxCell>
        <mxCell id="JxGRCyyDZtDp2fDfsdCm-30" value="- temperatura: byte" style="text;strokeColor=none;fillColor=none;align=left;verticalAlign=top;spacingLeft=4;spacingRight=4;overflow=hidden;rotatable=0;points=[[0,0.5],[1,0.5]];portConstraint=eastwest;whiteSpace=wrap;html=1;" parent="JxGRCyyDZtDp2fDfsdCm-25" vertex="1">
          <mxGeometry y="118" width="590" height="26" as="geometry" />
        </mxCell>
        <mxCell id="JxGRCyyDZtDp2fDfsdCm-31" value="- pressione: byte" style="text;strokeColor=none;fillColor=none;align=left;verticalAlign=top;spacingLeft=4;spacingRight=4;overflow=hidden;rotatable=0;points=[[0,0.5],[1,0.5]];portConstraint=eastwest;whiteSpace=wrap;html=1;" parent="JxGRCyyDZtDp2fDfsdCm-25" vertex="1">
          <mxGeometry y="144" width="590" height="26" as="geometry" />
        </mxCell>
        <mxCell id="JxGRCyyDZtDp2fDfsdCm-29" value="- umidita: byte" style="text;strokeColor=none;fillColor=none;align=left;verticalAlign=top;spacingLeft=4;spacingRight=4;overflow=hidden;rotatable=0;points=[[0,0.5],[1,0.5]];portConstraint=eastwest;whiteSpace=wrap;html=1;" parent="JxGRCyyDZtDp2fDfsdCm-25" vertex="1">
          <mxGeometry y="170" width="590" height="26" as="geometry" />
        </mxCell>
        <mxCell id="JxGRCyyDZtDp2fDfsdCm-26" value="- vento: byte" style="text;strokeColor=none;fillColor=none;align=left;verticalAlign=top;spacingLeft=4;spacingRight=4;overflow=hidden;rotatable=0;points=[[0,0.5],[1,0.5]];portConstraint=eastwest;whiteSpace=wrap;html=1;" parent="JxGRCyyDZtDp2fDfsdCm-25" vertex="1">
          <mxGeometry y="196" width="590" height="26" as="geometry" />
        </mxCell>
        <mxCell id="JxGRCyyDZtDp2fDfsdCm-37" value="- note: HashMap&amp;lt;DatoGeografico, String (max 256 char)&amp;gt;" style="text;strokeColor=none;fillColor=none;align=left;verticalAlign=top;spacingLeft=4;spacingRight=4;overflow=hidden;rotatable=0;points=[[0,0.5],[1,0.5]];portConstraint=eastwest;whiteSpace=wrap;html=1;" parent="JxGRCyyDZtDp2fDfsdCm-25" vertex="1">
          <mxGeometry y="222" width="590" height="26" as="geometry" />
        </mxCell>
        <mxCell id="CR_k1ErsiSNvkhVKo7Lu-2" value="&lt;div&gt;Le costanti (vento, umidita, ...) hanno un attributo implicito che contiene il valore (0..5).&lt;/div&gt;&lt;div&gt;Nella HashMap la chiave saranno le costanti dell&#39;enum, il valore associato sara la stringa della descrizione.&lt;br&gt;&lt;/div&gt;" style="text;html=1;align=center;verticalAlign=middle;resizable=0;points=[];autosize=1;strokeColor=none;fillColor=none;" vertex="1" parent="JxGRCyyDZtDp2fDfsdCm-25">
          <mxGeometry y="248" width="590" height="40" as="geometry" />
        </mxCell>
        <mxCell id="JxGRCyyDZtDp2fDfsdCm-27" value="" style="line;strokeWidth=1;fillColor=none;align=left;verticalAlign=middle;spacingTop=-1;spacingLeft=3;spacingRight=3;rotatable=0;labelPosition=right;points=[];portConstraint=eastwest;strokeColor=inherit;" parent="JxGRCyyDZtDp2fDfsdCm-25" vertex="1">
          <mxGeometry y="288" width="590" height="8" as="geometry" />
        </mxCell>
        <mxCell id="CR_k1ErsiSNvkhVKo7Lu-45" value="+ DatoGeografico(byte, byte, byte, byte, byte, byte, byte, HashMap)" style="text;strokeColor=none;fillColor=none;align=left;verticalAlign=top;spacingLeft=4;spacingRight=4;overflow=hidden;rotatable=0;points=[[0,0.5],[1,0.5]];portConstraint=eastwest;whiteSpace=wrap;html=1;" vertex="1" parent="JxGRCyyDZtDp2fDfsdCm-25">
          <mxGeometry y="296" width="590" height="26" as="geometry" />
        </mxCell>
        <mxCell id="JxGRCyyDZtDp2fDfsdCm-28" value="+ Getter, Setter" style="text;strokeColor=none;fillColor=none;align=left;verticalAlign=top;spacingLeft=4;spacingRight=4;overflow=hidden;rotatable=0;points=[[0,0.5],[1,0.5]];portConstraint=eastwest;whiteSpace=wrap;html=1;" parent="JxGRCyyDZtDp2fDfsdCm-25" vertex="1">
          <mxGeometry y="322" width="590" height="26" as="geometry" />
        </mxCell>
        <mxCell id="JxGRCyyDZtDp2fDfsdCm-38" value="+ getNota(attr: DatoGeografico): String" style="text;strokeColor=none;fillColor=none;align=left;verticalAlign=top;spacingLeft=4;spacingRight=4;overflow=hidden;rotatable=0;points=[[0,0.5],[1,0.5]];portConstraint=eastwest;whiteSpace=wrap;html=1;" parent="JxGRCyyDZtDp2fDfsdCm-25" vertex="1">
          <mxGeometry y="348" width="590" height="26" as="geometry" />
        </mxCell>
        <mxCell id="CR_k1ErsiSNvkhVKo7Lu-3" value="Operatore" style="swimlane;fontStyle=1;align=center;verticalAlign=top;childLayout=stackLayout;horizontal=1;startSize=26;horizontalStack=0;resizeParent=1;resizeParentMax=0;resizeLast=0;collapsible=1;marginBottom=0;whiteSpace=wrap;html=1;" vertex="1" parent="1">
          <mxGeometry x="560" y="-402" width="440" height="268" as="geometry" />
        </mxCell>
        <mxCell id="CR_k1ErsiSNvkhVKo7Lu-4" value="- nome: String" style="text;strokeColor=none;fillColor=none;align=left;verticalAlign=top;spacingLeft=4;spacingRight=4;overflow=hidden;rotatable=0;points=[[0,0.5],[1,0.5]];portConstraint=eastwest;whiteSpace=wrap;html=1;" vertex="1" parent="CR_k1ErsiSNvkhVKo7Lu-3">
          <mxGeometry y="26" width="440" height="26" as="geometry" />
        </mxCell>
        <mxCell id="CR_k1ErsiSNvkhVKo7Lu-7" value="- cognome: String" style="text;strokeColor=none;fillColor=none;align=left;verticalAlign=top;spacingLeft=4;spacingRight=4;overflow=hidden;rotatable=0;points=[[0,0.5],[1,0.5]];portConstraint=eastwest;whiteSpace=wrap;html=1;" vertex="1" parent="CR_k1ErsiSNvkhVKo7Lu-3">
          <mxGeometry y="52" width="440" height="26" as="geometry" />
        </mxCell>
        <mxCell id="CR_k1ErsiSNvkhVKo7Lu-8" value="- codfis: CodiceFiscale" style="text;strokeColor=none;fillColor=none;align=left;verticalAlign=top;spacingLeft=4;spacingRight=4;overflow=hidden;rotatable=0;points=[[0,0.5],[1,0.5]];portConstraint=eastwest;whiteSpace=wrap;html=1;" vertex="1" parent="CR_k1ErsiSNvkhVKo7Lu-3">
          <mxGeometry y="78" width="440" height="26" as="geometry" />
        </mxCell>
        <mxCell id="CR_k1ErsiSNvkhVKo7Lu-13" value="&lt;div&gt;- email: String&lt;/div&gt;" style="text;strokeColor=none;fillColor=none;align=left;verticalAlign=top;spacingLeft=4;spacingRight=4;overflow=hidden;rotatable=0;points=[[0,0.5],[1,0.5]];portConstraint=eastwest;whiteSpace=wrap;html=1;" vertex="1" parent="CR_k1ErsiSNvkhVKo7Lu-3">
          <mxGeometry y="104" width="440" height="26" as="geometry" />
        </mxCell>
        <mxCell id="CR_k1ErsiSNvkhVKo7Lu-14" value="- userid: String // no spazi, slash, univoco" style="text;strokeColor=none;fillColor=none;align=left;verticalAlign=top;spacingLeft=4;spacingRight=4;overflow=hidden;rotatable=0;points=[[0,0.5],[1,0.5]];portConstraint=eastwest;whiteSpace=wrap;html=1;" vertex="1" parent="CR_k1ErsiSNvkhVKo7Lu-3">
          <mxGeometry y="130" width="440" height="26" as="geometry" />
        </mxCell>
        <mxCell id="CR_k1ErsiSNvkhVKo7Lu-15" value="- centro: CentroMonitoraggio" style="text;strokeColor=none;fillColor=none;align=left;verticalAlign=top;spacingLeft=4;spacingRight=4;overflow=hidden;rotatable=0;points=[[0,0.5],[1,0.5]];portConstraint=eastwest;whiteSpace=wrap;html=1;" vertex="1" parent="CR_k1ErsiSNvkhVKo7Lu-3">
          <mxGeometry y="156" width="440" height="26" as="geometry" />
        </mxCell>
        <mxCell id="CR_k1ErsiSNvkhVKo7Lu-5" value="" style="line;strokeWidth=1;fillColor=none;align=left;verticalAlign=middle;spacingTop=-1;spacingLeft=3;spacingRight=3;rotatable=0;labelPosition=right;points=[];portConstraint=eastwest;strokeColor=inherit;" vertex="1" parent="CR_k1ErsiSNvkhVKo7Lu-3">
          <mxGeometry y="182" width="440" height="8" as="geometry" />
        </mxCell>
        <mxCell id="CR_k1ErsiSNvkhVKo7Lu-6" value="+ Operatore(String, String, CodiceFiscale, String, String, CentoMonitoraggio)" style="text;strokeColor=none;fillColor=none;align=left;verticalAlign=top;spacingLeft=4;spacingRight=4;overflow=hidden;rotatable=0;points=[[0,0.5],[1,0.5]];portConstraint=eastwest;whiteSpace=wrap;html=1;" vertex="1" parent="CR_k1ErsiSNvkhVKo7Lu-3">
          <mxGeometry y="190" width="440" height="26" as="geometry" />
        </mxCell>
        <mxCell id="CR_k1ErsiSNvkhVKo7Lu-40" value="+ Operatore()" style="text;strokeColor=none;fillColor=none;align=left;verticalAlign=top;spacingLeft=4;spacingRight=4;overflow=hidden;rotatable=0;points=[[0,0.5],[1,0.5]];portConstraint=eastwest;whiteSpace=wrap;html=1;" vertex="1" parent="CR_k1ErsiSNvkhVKo7Lu-3">
          <mxGeometry y="216" width="440" height="26" as="geometry" />
        </mxCell>
        <mxCell id="CR_k1ErsiSNvkhVKo7Lu-41" value="+ Getter, Setter" style="text;strokeColor=none;fillColor=none;align=left;verticalAlign=top;spacingLeft=4;spacingRight=4;overflow=hidden;rotatable=0;points=[[0,0.5],[1,0.5]];portConstraint=eastwest;whiteSpace=wrap;html=1;" vertex="1" parent="CR_k1ErsiSNvkhVKo7Lu-3">
          <mxGeometry y="242" width="440" height="26" as="geometry" />
        </mxCell>
        <mxCell id="CR_k1ErsiSNvkhVKo7Lu-9" value="CodiceFiscale" style="swimlane;fontStyle=1;align=center;verticalAlign=top;childLayout=stackLayout;horizontal=1;startSize=26;horizontalStack=0;resizeParent=1;resizeParentMax=0;resizeLast=0;collapsible=1;marginBottom=0;whiteSpace=wrap;html=1;" vertex="1" parent="1">
          <mxGeometry x="1040" y="-282" width="310" height="112" as="geometry" />
        </mxCell>
        <mxCell id="CR_k1ErsiSNvkhVKo7Lu-10" value="- cf: String" style="text;strokeColor=none;fillColor=none;align=left;verticalAlign=top;spacingLeft=4;spacingRight=4;overflow=hidden;rotatable=0;points=[[0,0.5],[1,0.5]];portConstraint=eastwest;whiteSpace=wrap;html=1;" vertex="1" parent="CR_k1ErsiSNvkhVKo7Lu-9">
          <mxGeometry y="26" width="310" height="26" as="geometry" />
        </mxCell>
        <mxCell id="CR_k1ErsiSNvkhVKo7Lu-11" value="" style="line;strokeWidth=1;fillColor=none;align=left;verticalAlign=middle;spacingTop=-1;spacingLeft=3;spacingRight=3;rotatable=0;labelPosition=right;points=[];portConstraint=eastwest;strokeColor=inherit;" vertex="1" parent="CR_k1ErsiSNvkhVKo7Lu-9">
          <mxGeometry y="52" width="310" height="8" as="geometry" />
        </mxCell>
        <mxCell id="CR_k1ErsiSNvkhVKo7Lu-39" value="+ CodiceFiscale(cf: String) // Controlla correttezza CF" style="text;strokeColor=none;fillColor=none;align=left;verticalAlign=top;spacingLeft=4;spacingRight=4;overflow=hidden;rotatable=0;points=[[0,0.5],[1,0.5]];portConstraint=eastwest;whiteSpace=wrap;html=1;" vertex="1" parent="CR_k1ErsiSNvkhVKo7Lu-9">
          <mxGeometry y="60" width="310" height="26" as="geometry" />
        </mxCell>
        <mxCell id="CR_k1ErsiSNvkhVKo7Lu-12" value="+ get(): String" style="text;strokeColor=none;fillColor=none;align=left;verticalAlign=top;spacingLeft=4;spacingRight=4;overflow=hidden;rotatable=0;points=[[0,0.5],[1,0.5]];portConstraint=eastwest;whiteSpace=wrap;html=1;" vertex="1" parent="CR_k1ErsiSNvkhVKo7Lu-9">
          <mxGeometry y="86" width="310" height="26" as="geometry" />
        </mxCell>
        <mxCell id="CR_k1ErsiSNvkhVKo7Lu-16" value="&lt;u&gt;GestoreOperatore&lt;/u&gt;" style="swimlane;fontStyle=1;align=center;verticalAlign=top;childLayout=stackLayout;horizontal=1;startSize=26;horizontalStack=0;resizeParent=1;resizeParentMax=0;resizeLast=0;collapsible=1;marginBottom=0;whiteSpace=wrap;html=1;" vertex="1" parent="1">
          <mxGeometry x="450" y="-584" width="280" height="112" as="geometry" />
        </mxCell>
        <mxCell id="CR_k1ErsiSNvkhVKo7Lu-17" value="// no attr" style="text;strokeColor=none;fillColor=none;align=left;verticalAlign=top;spacingLeft=4;spacingRight=4;overflow=hidden;rotatable=0;points=[[0,0.5],[1,0.5]];portConstraint=eastwest;whiteSpace=wrap;html=1;" vertex="1" parent="CR_k1ErsiSNvkhVKo7Lu-16">
          <mxGeometry y="26" width="280" height="26" as="geometry" />
        </mxCell>
        <mxCell id="CR_k1ErsiSNvkhVKo7Lu-18" value="" style="line;strokeWidth=1;fillColor=none;align=left;verticalAlign=middle;spacingTop=-1;spacingLeft=3;spacingRight=3;rotatable=0;labelPosition=right;points=[];portConstraint=eastwest;strokeColor=inherit;" vertex="1" parent="CR_k1ErsiSNvkhVKo7Lu-16">
          <mxGeometry y="52" width="280" height="8" as="geometry" />
        </mxCell>
        <mxCell id="CR_k1ErsiSNvkhVKo7Lu-19" value="+ registrazione(op: Operatore, pwd: String):bool" style="text;strokeColor=none;fillColor=none;align=left;verticalAlign=top;spacingLeft=4;spacingRight=4;overflow=hidden;rotatable=0;points=[[0,0.5],[1,0.5]];portConstraint=eastwest;whiteSpace=wrap;html=1;" vertex="1" parent="CR_k1ErsiSNvkhVKo7Lu-16">
          <mxGeometry y="60" width="280" height="26" as="geometry" />
        </mxCell>
        <mxCell id="CR_k1ErsiSNvkhVKo7Lu-25" value="+ login(uid: String, pwd: String): Operatore" style="text;strokeColor=none;fillColor=none;align=left;verticalAlign=top;spacingLeft=4;spacingRight=4;overflow=hidden;rotatable=0;points=[[0,0.5],[1,0.5]];portConstraint=eastwest;whiteSpace=wrap;html=1;" vertex="1" parent="CR_k1ErsiSNvkhVKo7Lu-16">
          <mxGeometry y="86" width="280" height="26" as="geometry" />
        </mxCell>
        <mxCell id="CR_k1ErsiSNvkhVKo7Lu-20" value="CentroMonitoraggio" style="swimlane;fontStyle=1;align=center;verticalAlign=top;childLayout=stackLayout;horizontal=1;startSize=26;horizontalStack=0;resizeParent=1;resizeParentMax=0;resizeLast=0;collapsible=1;marginBottom=0;whiteSpace=wrap;html=1;" vertex="1" parent="1">
          <mxGeometry x="270" y="-402" width="270" height="138" as="geometry">
            <mxRectangle x="330" y="-394" width="160" height="30" as="alternateBounds" />
          </mxGeometry>
        </mxCell>
        <mxCell id="CR_k1ErsiSNvkhVKo7Lu-21" value="- nome: String" style="text;strokeColor=none;fillColor=none;align=left;verticalAlign=top;spacingLeft=4;spacingRight=4;overflow=hidden;rotatable=0;points=[[0,0.5],[1,0.5]];portConstraint=eastwest;whiteSpace=wrap;html=1;" vertex="1" parent="CR_k1ErsiSNvkhVKo7Lu-20">
          <mxGeometry y="26" width="270" height="26" as="geometry" />
        </mxCell>
        <mxCell id="CR_k1ErsiSNvkhVKo7Lu-46" value="- indirizzo: Indirizzo" style="text;strokeColor=none;fillColor=none;align=left;verticalAlign=top;spacingLeft=4;spacingRight=4;overflow=hidden;rotatable=0;points=[[0,0.5],[1,0.5]];portConstraint=eastwest;whiteSpace=wrap;html=1;" vertex="1" parent="CR_k1ErsiSNvkhVKo7Lu-20">
          <mxGeometry y="52" width="270" height="26" as="geometry" />
        </mxCell>
        <mxCell id="CR_k1ErsiSNvkhVKo7Lu-51" value="- aree: List&amp;lt;AreaGeografica&amp;gt;" style="text;strokeColor=none;fillColor=none;align=left;verticalAlign=top;spacingLeft=4;spacingRight=4;overflow=hidden;rotatable=0;points=[[0,0.5],[1,0.5]];portConstraint=eastwest;whiteSpace=wrap;html=1;" vertex="1" parent="CR_k1ErsiSNvkhVKo7Lu-20">
          <mxGeometry y="78" width="270" height="26" as="geometry" />
        </mxCell>
        <mxCell id="CR_k1ErsiSNvkhVKo7Lu-22" value="" style="line;strokeWidth=1;fillColor=none;align=left;verticalAlign=middle;spacingTop=-1;spacingLeft=3;spacingRight=3;rotatable=0;labelPosition=right;points=[];portConstraint=eastwest;strokeColor=inherit;" vertex="1" parent="CR_k1ErsiSNvkhVKo7Lu-20">
          <mxGeometry y="104" width="270" height="8" as="geometry" />
        </mxCell>
        <mxCell id="CR_k1ErsiSNvkhVKo7Lu-23" value="+ CentroMonitoraggio(String, Indirizzo, List&amp;lt;&amp;gt;)" style="text;strokeColor=none;fillColor=none;align=left;verticalAlign=top;spacingLeft=4;spacingRight=4;overflow=hidden;rotatable=0;points=[[0,0.5],[1,0.5]];portConstraint=eastwest;whiteSpace=wrap;html=1;" vertex="1" parent="CR_k1ErsiSNvkhVKo7Lu-20">
          <mxGeometry y="112" width="270" height="26" as="geometry" />
        </mxCell>
        <mxCell id="CR_k1ErsiSNvkhVKo7Lu-24" style="edgeStyle=orthogonalEdgeStyle;rounded=0;orthogonalLoop=1;jettySize=auto;html=1;endArrow=none;endFill=0;" edge="1" parent="1" source="CR_k1ErsiSNvkhVKo7Lu-8" target="CR_k1ErsiSNvkhVKo7Lu-9">
          <mxGeometry relative="1" as="geometry" />
        </mxCell>
        <mxCell id="CR_k1ErsiSNvkhVKo7Lu-26" style="edgeStyle=orthogonalEdgeStyle;rounded=0;orthogonalLoop=1;jettySize=auto;html=1;endArrow=none;endFill=0;" edge="1" parent="1" source="JxGRCyyDZtDp2fDfsdCm-20" target="JxGRCyyDZtDp2fDfsdCm-25">
          <mxGeometry relative="1" as="geometry" />
        </mxCell>
        <mxCell id="CR_k1ErsiSNvkhVKo7Lu-27" style="edgeStyle=orthogonalEdgeStyle;rounded=0;orthogonalLoop=1;jettySize=auto;html=1;strokeColor=default;endArrow=none;endFill=0;" edge="1" parent="1" source="CR_k1ErsiSNvkhVKo7Lu-15" target="CR_k1ErsiSNvkhVKo7Lu-20">
          <mxGeometry relative="1" as="geometry" />
        </mxCell>
        <mxCell id="CR_k1ErsiSNvkhVKo7Lu-28" style="edgeStyle=orthogonalEdgeStyle;rounded=0;orthogonalLoop=1;jettySize=auto;html=1;endArrow=none;endFill=0;" edge="1" parent="1" source="JxGRCyyDZtDp2fDfsdCm-14" target="JxGRCyyDZtDp2fDfsdCm-1">
          <mxGeometry relative="1" as="geometry" />
        </mxCell>
        <mxCell id="CR_k1ErsiSNvkhVKo7Lu-38" style="edgeStyle=orthogonalEdgeStyle;rounded=0;orthogonalLoop=1;jettySize=auto;html=1;endArrow=none;endFill=0;" edge="1" parent="1" source="CR_k1ErsiSNvkhVKo7Lu-19" target="CR_k1ErsiSNvkhVKo7Lu-3">
          <mxGeometry relative="1" as="geometry" />
        </mxCell>
        <mxCell id="CR_k1ErsiSNvkhVKo7Lu-47" value="Indirizzo" style="swimlane;fontStyle=1;align=center;verticalAlign=top;childLayout=stackLayout;horizontal=1;startSize=26;horizontalStack=0;resizeParent=1;resizeParentMax=0;resizeLast=0;collapsible=1;marginBottom=0;whiteSpace=wrap;html=1;" vertex="1" parent="1">
          <mxGeometry x="-100" y="-472" width="270" height="242" as="geometry" />
        </mxCell>
        <mxCell id="CR_k1ErsiSNvkhVKo7Lu-48" value="- tipoVia: String" style="text;strokeColor=none;fillColor=none;align=left;verticalAlign=top;spacingLeft=4;spacingRight=4;overflow=hidden;rotatable=0;points=[[0,0.5],[1,0.5]];portConstraint=eastwest;whiteSpace=wrap;html=1;" vertex="1" parent="CR_k1ErsiSNvkhVKo7Lu-47">
          <mxGeometry y="26" width="270" height="26" as="geometry" />
        </mxCell>
        <mxCell id="CR_k1ErsiSNvkhVKo7Lu-52" value="- nomeVia: String" style="text;strokeColor=none;fillColor=none;align=left;verticalAlign=top;spacingLeft=4;spacingRight=4;overflow=hidden;rotatable=0;points=[[0,0.5],[1,0.5]];portConstraint=eastwest;whiteSpace=wrap;html=1;" vertex="1" parent="CR_k1ErsiSNvkhVKo7Lu-47">
          <mxGeometry y="52" width="270" height="26" as="geometry" />
        </mxCell>
        <mxCell id="CR_k1ErsiSNvkhVKo7Lu-53" value="- civico: int" style="text;strokeColor=none;fillColor=none;align=left;verticalAlign=top;spacingLeft=4;spacingRight=4;overflow=hidden;rotatable=0;points=[[0,0.5],[1,0.5]];portConstraint=eastwest;whiteSpace=wrap;html=1;" vertex="1" parent="CR_k1ErsiSNvkhVKo7Lu-47">
          <mxGeometry y="78" width="270" height="26" as="geometry" />
        </mxCell>
        <mxCell id="CR_k1ErsiSNvkhVKo7Lu-54" value="- cap: int" style="text;strokeColor=none;fillColor=none;align=left;verticalAlign=top;spacingLeft=4;spacingRight=4;overflow=hidden;rotatable=0;points=[[0,0.5],[1,0.5]];portConstraint=eastwest;whiteSpace=wrap;html=1;" vertex="1" parent="CR_k1ErsiSNvkhVKo7Lu-47">
          <mxGeometry y="104" width="270" height="26" as="geometry" />
        </mxCell>
        <mxCell id="CR_k1ErsiSNvkhVKo7Lu-55" value="- comune: String" style="text;strokeColor=none;fillColor=none;align=left;verticalAlign=top;spacingLeft=4;spacingRight=4;overflow=hidden;rotatable=0;points=[[0,0.5],[1,0.5]];portConstraint=eastwest;whiteSpace=wrap;html=1;" vertex="1" parent="CR_k1ErsiSNvkhVKo7Lu-47">
          <mxGeometry y="130" width="270" height="26" as="geometry" />
        </mxCell>
        <mxCell id="CR_k1ErsiSNvkhVKo7Lu-56" value="- provincia: String" style="text;strokeColor=none;fillColor=none;align=left;verticalAlign=top;spacingLeft=4;spacingRight=4;overflow=hidden;rotatable=0;points=[[0,0.5],[1,0.5]];portConstraint=eastwest;whiteSpace=wrap;html=1;" vertex="1" parent="CR_k1ErsiSNvkhVKo7Lu-47">
          <mxGeometry y="156" width="270" height="26" as="geometry" />
        </mxCell>
        <mxCell id="CR_k1ErsiSNvkhVKo7Lu-49" value="" style="line;strokeWidth=1;fillColor=none;align=left;verticalAlign=middle;spacingTop=-1;spacingLeft=3;spacingRight=3;rotatable=0;labelPosition=right;points=[];portConstraint=eastwest;strokeColor=inherit;" vertex="1" parent="CR_k1ErsiSNvkhVKo7Lu-47">
          <mxGeometry y="182" width="270" height="8" as="geometry" />
        </mxCell>
        <mxCell id="CR_k1ErsiSNvkhVKo7Lu-50" value="+ Indirizzo()" style="text;strokeColor=none;fillColor=none;align=left;verticalAlign=top;spacingLeft=4;spacingRight=4;overflow=hidden;rotatable=0;points=[[0,0.5],[1,0.5]];portConstraint=eastwest;whiteSpace=wrap;html=1;" vertex="1" parent="CR_k1ErsiSNvkhVKo7Lu-47">
          <mxGeometry y="190" width="270" height="26" as="geometry" />
        </mxCell>
        <mxCell id="CR_k1ErsiSNvkhVKo7Lu-58" value="+ Indirizzo(String, String, int, int, String, String)" style="text;strokeColor=none;fillColor=none;align=left;verticalAlign=top;spacingLeft=4;spacingRight=4;overflow=hidden;rotatable=0;points=[[0,0.5],[1,0.5]];portConstraint=eastwest;whiteSpace=wrap;html=1;" vertex="1" parent="CR_k1ErsiSNvkhVKo7Lu-47">
          <mxGeometry y="216" width="270" height="26" as="geometry" />
        </mxCell>
        <mxCell id="CR_k1ErsiSNvkhVKo7Lu-57" style="edgeStyle=orthogonalEdgeStyle;rounded=0;orthogonalLoop=1;jettySize=auto;html=1;endArrow=none;endFill=0;" edge="1" parent="1" source="CR_k1ErsiSNvkhVKo7Lu-46" target="CR_k1ErsiSNvkhVKo7Lu-47">
          <mxGeometry relative="1" as="geometry" />
        </mxCell>
        <mxCell id="CR_k1ErsiSNvkhVKo7Lu-59" value="&lt;u&gt;GestoreCentro&lt;/u&gt;" style="swimlane;fontStyle=1;align=center;verticalAlign=top;childLayout=stackLayout;horizontal=1;startSize=26;horizontalStack=0;resizeParent=1;resizeParentMax=0;resizeLast=0;collapsible=1;marginBottom=0;whiteSpace=wrap;html=1;" vertex="1" parent="1">
          <mxGeometry x="100" y="-584" width="230" height="86" as="geometry" />
        </mxCell>
        <mxCell id="CR_k1ErsiSNvkhVKo7Lu-60" value="// no attr" style="text;strokeColor=none;fillColor=none;align=left;verticalAlign=top;spacingLeft=4;spacingRight=4;overflow=hidden;rotatable=0;points=[[0,0.5],[1,0.5]];portConstraint=eastwest;whiteSpace=wrap;html=1;" vertex="1" parent="CR_k1ErsiSNvkhVKo7Lu-59">
          <mxGeometry y="26" width="230" height="26" as="geometry" />
        </mxCell>
        <mxCell id="CR_k1ErsiSNvkhVKo7Lu-61" value="" style="line;strokeWidth=1;fillColor=none;align=left;verticalAlign=middle;spacingTop=-1;spacingLeft=3;spacingRight=3;rotatable=0;labelPosition=right;points=[];portConstraint=eastwest;strokeColor=inherit;" vertex="1" parent="CR_k1ErsiSNvkhVKo7Lu-59">
          <mxGeometry y="52" width="230" height="8" as="geometry" />
        </mxCell>
        <mxCell id="CR_k1ErsiSNvkhVKo7Lu-62" value="+ registraCentro(CentroMonitoraggio)" style="text;strokeColor=none;fillColor=none;align=left;verticalAlign=top;spacingLeft=4;spacingRight=4;overflow=hidden;rotatable=0;points=[[0,0.5],[1,0.5]];portConstraint=eastwest;whiteSpace=wrap;html=1;" vertex="1" parent="CR_k1ErsiSNvkhVKo7Lu-59">
          <mxGeometry y="60" width="230" height="26" as="geometry" />
        </mxCell>
        <mxCell id="CR_k1ErsiSNvkhVKo7Lu-63" style="edgeStyle=orthogonalEdgeStyle;rounded=0;orthogonalLoop=1;jettySize=auto;html=1;" edge="1" parent="1" source="CR_k1ErsiSNvkhVKo7Lu-62" target="CR_k1ErsiSNvkhVKo7Lu-20">
          <mxGeometry relative="1" as="geometry" />
        </mxCell>
        <mxCell id="CR_k1ErsiSNvkhVKo7Lu-64" value="&lt;div style=&quot;font-size: 16px;&quot;&gt;&lt;font style=&quot;font-size: 16px;&quot;&gt;Grassetto: Classe&lt;/font&gt;&lt;/div&gt;&lt;div style=&quot;font-size: 16px;&quot;&gt;&lt;font style=&quot;font-size: 16px;&quot;&gt;Sottolineato: static&lt;br style=&quot;font-size: 16px;&quot;&gt;&lt;/font&gt;&lt;/div&gt;&lt;div style=&quot;font-size: 16px;&quot;&gt;&lt;font style=&quot;font-size: 16px;&quot;&gt;&lt;br style=&quot;font-size: 16px;&quot;&gt;&lt;/font&gt;&lt;/div&gt;&lt;div style=&quot;font-size: 16px;&quot;&gt;&lt;font style=&quot;font-size: 16px;&quot;&gt;Frecce senza punta: composizione&lt;/font&gt;&lt;/div&gt;&lt;div style=&quot;font-size: 16px;&quot;&gt;&lt;font style=&quot;font-size: 16px;&quot;&gt;&lt;font style=&quot;font-size: 16px;&quot;&gt;Frecce puntate: gerarchia&lt;/font&gt;&lt;br style=&quot;font-size: 16px;&quot;&gt;&lt;/font&gt;&lt;/div&gt;" style="text;html=1;align=center;verticalAlign=middle;resizable=0;points=[];autosize=1;strokeColor=none;fillColor=none;fontSize=16;" vertex="1" parent="1">
          <mxGeometry x="-965" y="-475" width="270" height="110" as="geometry" />
        </mxCell>
      </root>
    </mxGraphModel>
  </diagram>
</mxfile>
